<mxfile host="app.diagrams.net" modified="2022-02-22T19:11:29.765Z" agent="5.0 (Windows NT 10.0; Win64; x64) AppleWebKit/537.36 (KHTML, like Gecko) Chrome/98.0.4758.102 Safari/537.36" etag="gR2vSgEfYarHa3jv0mxK" version="16.6.2" type="github">
  <diagram id="6a731a19-8d31-9384-78a2-239565b7b9f0" name="Page-1">
    <mxGraphModel dx="1896" dy="1029" grid="1" gridSize="10" guides="1" tooltips="1" connect="1" arrows="1" fold="1" page="1" pageScale="1" pageWidth="827" pageHeight="1169" background="none" math="0" shadow="0">
      <root>
        <mxCell id="0" />
        <mxCell id="1" parent="0" />
        <mxCell id="T5IHR3J1Dz5RP0lIIqH1-2267" value="" style="sketch=0;pointerEvents=1;shadow=0;dashed=0;html=1;strokeColor=none;fillColor=#505050;labelPosition=center;verticalLabelPosition=bottom;verticalAlign=top;outlineConnect=0;align=center;shape=mxgraph.office.devices.workstation_pc;" vertex="1" parent="1">
          <mxGeometry x="150" y="120" width="60" height="60" as="geometry" />
        </mxCell>
        <mxCell id="T5IHR3J1Dz5RP0lIIqH1-2269" value="" style="sketch=0;pointerEvents=1;shadow=0;dashed=0;html=1;strokeColor=none;fillColor=#505050;labelPosition=center;verticalLabelPosition=bottom;verticalAlign=top;outlineConnect=0;align=center;shape=mxgraph.office.servers.active_directory_federation_services_server_green;" vertex="1" parent="1">
          <mxGeometry x="311" y="470" width="140" height="140" as="geometry" />
        </mxCell>
        <mxCell id="T5IHR3J1Dz5RP0lIIqH1-2271" value="" style="sketch=0;pointerEvents=1;shadow=0;dashed=0;html=1;strokeColor=none;fillColor=#505050;labelPosition=center;verticalLabelPosition=bottom;verticalAlign=top;outlineConnect=0;align=center;shape=mxgraph.office.servers.web_server_green;" vertex="1" parent="1">
          <mxGeometry x="276" y="690" width="140" height="140" as="geometry" />
        </mxCell>
        <mxCell id="T5IHR3J1Dz5RP0lIIqH1-2283" value="&lt;b&gt;&amp;nbsp;MS Windows Server 2008&lt;br&gt;&lt;br&gt;&lt;br&gt;&lt;/b&gt;" style="text;html=1;resizable=0;autosize=1;align=left;verticalAlign=middle;points=[];fillColor=none;strokeColor=none;rounded=0;fontSize=16;" vertex="1" parent="1">
          <mxGeometry x="260" y="630" width="210" height="60" as="geometry" />
        </mxCell>
        <mxCell id="T5IHR3J1Dz5RP0lIIqH1-2285" value="&lt;b&gt;MS Windows 2019 + Сервер веб-конференций&lt;/b&gt;" style="text;html=1;resizable=0;autosize=1;align=center;verticalAlign=middle;points=[];fillColor=none;strokeColor=none;rounded=0;fontSize=16;" vertex="1" parent="1">
          <mxGeometry x="140" y="870" width="380" height="20" as="geometry" />
        </mxCell>
        <mxCell id="T5IHR3J1Dz5RP0lIIqH1-2286" value="" style="sketch=0;pointerEvents=1;shadow=0;dashed=0;html=1;strokeColor=none;fillColor=#505050;labelPosition=center;verticalLabelPosition=bottom;verticalAlign=top;outlineConnect=0;align=center;shape=mxgraph.office.devices.workstation_pc;" vertex="1" parent="1">
          <mxGeometry x="351" y="120" width="60" height="60" as="geometry" />
        </mxCell>
        <mxCell id="T5IHR3J1Dz5RP0lIIqH1-2287" value="" style="sketch=0;pointerEvents=1;shadow=0;dashed=0;html=1;strokeColor=none;fillColor=#505050;labelPosition=center;verticalLabelPosition=bottom;verticalAlign=top;outlineConnect=0;align=center;shape=mxgraph.office.devices.workstation_pc;" vertex="1" parent="1">
          <mxGeometry x="570" y="120" width="60" height="60" as="geometry" />
        </mxCell>
        <mxCell id="T5IHR3J1Dz5RP0lIIqH1-2311" value="&lt;b&gt;&amp;nbsp;Cisco router&lt;br&gt;&lt;br&gt;&lt;br&gt;&lt;/b&gt;" style="text;html=1;resizable=0;autosize=1;align=left;verticalAlign=middle;points=[];fillColor=none;strokeColor=none;rounded=0;fontSize=16;" vertex="1" parent="1">
          <mxGeometry x="310" y="410" width="110" height="60" as="geometry" />
        </mxCell>
        <mxCell id="T5IHR3J1Dz5RP0lIIqH1-2312" value="" style="shape=mxgraph.cisco.routers.router;sketch=0;html=1;pointerEvents=1;dashed=0;fillColor=#036897;strokeColor=#ffffff;strokeWidth=2;verticalLabelPosition=bottom;verticalAlign=top;align=center;outlineConnect=0;fontSize=16;" vertex="1" parent="1">
          <mxGeometry x="310" y="330" width="102.5" height="73" as="geometry" />
        </mxCell>
        <mxCell id="T5IHR3J1Dz5RP0lIIqH1-2314" value="" style="shape=mxgraph.cisco.switches.workgroup_switch;sketch=0;html=1;pointerEvents=1;dashed=0;fillColor=#036897;strokeColor=#ffffff;strokeWidth=2;verticalLabelPosition=bottom;verticalAlign=top;align=center;outlineConnect=0;fontSize=16;" vertex="1" parent="1">
          <mxGeometry x="140" y="220" width="101" height="50" as="geometry" />
        </mxCell>
        <mxCell id="T5IHR3J1Dz5RP0lIIqH1-2315" value="" style="shape=mxgraph.cisco.switches.workgroup_switch;sketch=0;html=1;pointerEvents=1;dashed=0;fillColor=#036897;strokeColor=#ffffff;strokeWidth=2;verticalLabelPosition=bottom;verticalAlign=top;align=center;outlineConnect=0;fontSize=16;" vertex="1" parent="1">
          <mxGeometry x="339" y="220" width="101" height="50" as="geometry" />
        </mxCell>
        <mxCell id="T5IHR3J1Dz5RP0lIIqH1-2316" value="" style="shape=mxgraph.cisco.switches.workgroup_switch;sketch=0;html=1;pointerEvents=1;dashed=0;fillColor=#036897;strokeColor=#ffffff;strokeWidth=2;verticalLabelPosition=bottom;verticalAlign=top;align=center;outlineConnect=0;fontSize=16;" vertex="1" parent="1">
          <mxGeometry x="544" y="220" width="101" height="50" as="geometry" />
        </mxCell>
        <mxCell id="T5IHR3J1Dz5RP0lIIqH1-2317" value="&lt;b&gt;&amp;nbsp;Cisco switch&lt;br&gt;&lt;br&gt;&lt;br&gt;&lt;/b&gt;" style="text;html=1;resizable=0;autosize=1;align=left;verticalAlign=middle;points=[];fillColor=none;strokeColor=none;rounded=0;fontSize=16;" vertex="1" parent="1">
          <mxGeometry x="140" y="280" width="120" height="60" as="geometry" />
        </mxCell>
        <mxCell id="T5IHR3J1Dz5RP0lIIqH1-2318" value="&lt;b&gt;&amp;nbsp;Cisco switch&lt;br&gt;&lt;br&gt;&lt;br&gt;&lt;/b&gt;" style="text;html=1;resizable=0;autosize=1;align=left;verticalAlign=middle;points=[];fillColor=none;strokeColor=none;rounded=0;fontSize=16;" vertex="1" parent="1">
          <mxGeometry x="329.5" y="280" width="120" height="60" as="geometry" />
        </mxCell>
        <mxCell id="T5IHR3J1Dz5RP0lIIqH1-2319" value="&lt;b&gt;&amp;nbsp;Cisco switch&lt;br&gt;&lt;br&gt;&lt;br&gt;&lt;/b&gt;" style="text;html=1;resizable=0;autosize=1;align=left;verticalAlign=middle;points=[];fillColor=none;strokeColor=none;rounded=0;fontSize=16;" vertex="1" parent="1">
          <mxGeometry x="540" y="280" width="120" height="60" as="geometry" />
        </mxCell>
      </root>
    </mxGraphModel>
  </diagram>
</mxfile>
